<svg width="20" height="20" viewBox="0 0 20 20" fill="none" xmlns="http://www.w3.org/2000/svg">
<path d="M13.49 7.63C13.31 4.84 12.18 2.12 10.06 0C8.0083 2.04118 6.74991 4.74585 6.51 7.63C7.79 8.31 8.97 9.19 10 10.26C11.03 9.2 12.21 8.32 13.49 7.63ZM6.99 10.28C6.85 10.18 6.69 10.09 6.54 9.99C6.69 10.1 6.85 10.18 6.99 10.28ZM10 13.45C7.85 10.17 4.18 8 0 8C0 13.32 3.36 17.82 8.03 19.49C8.66 19.72 9.32 19.89 10 20C10.68 19.88 11.33 19.71 11.97 19.49C16.64 17.82 20 13.32 20 8C15.82 8 12.15 10.17 10 13.45Z" fill="#AA96CB"/>
</svg>
